<?xml version="1.0" standalone="no"?>
<!DOCTYPE svg PUBLIC "-//W3C//DTD SVG 20010904//EN"
 "http://www.w3.org/TR/2001/REC-SVG-20010904/DTD/svg10.dtd">
<svg version="1.0" xmlns="http://www.w3.org/2000/svg"
 width="300.000000pt" height="300.000000pt" viewBox="0 0 300.000000 300.000000"
 preserveAspectRatio="xMidYMid meet">
<metadata>
Created by potrace 1.10, written by Peter Selinger 2001-2011
</metadata>
<g transform="translate(0.000000,300.000000) scale(0.100000,-0.100000)"
fill="#000000" stroke="none">
<path d="M2580 2842 c0 -17 -9 -34 -22 -44 -13 -9 -41 -30 -64 -46 -22 -17
-58 -53 -80 -81 -21 -27 -48 -53 -59 -57 -11 -4 -62 -48 -113 -98 l-93 -91
-292 1 -292 1 -315 47 c-308 47 -321 48 -607 53 -161 3 -304 2 -318 -1 -58
-15 -107 -209 -86 -342 6 -37 23 -93 38 -123 l28 -56 345 1 c299 1 379 4 596
27 138 15 262 31 275 36 l24 9 -29 7 c-23 6 -316 -14 -431 -30 -73 -10 -377
-26 -446 -24 -53 2 -82 -1 -93 -10 -21 -18 -20 -10 9 82 32 101 34 226 5 319
-23 74 -25 92 -7 81 6 -4 73 -8 147 -9 170 -2 207 -5 578 -59 166 -24 309 -42
317 -39 9 4 16 -2 19 -18 3 -12 7 -32 9 -43 3 -12 5 -8 6 11 1 39 3 40 163 42
121 2 127 2 142 -20 9 -12 16 -34 16 -48 0 -18 3 -21 9 -12 5 8 4 31 -2 53 -9
36 0 71 10 42 7 -19 144 -17 189 2 20 8 74 51 121 95 47 44 90 80 94 80 5 0 9
7 9 15 0 31 29 12 114 -74 l87 -89 -21 -24 c-11 -13 -51 -61 -88 -108 -36 -47
-79 -98 -94 -115 -15 -16 -28 -33 -28 -37 0 -3 -15 -16 -34 -27 -30 -19 -49
-21 -184 -21 -141 0 -179 -7 -157 -28 4 -4 79 -7 168 -7 147 0 165 2 189 20
37 27 247 284 254 310 3 11 25 34 50 50 24 17 64 59 89 95 39 57 42 66 27 74
-9 5 -26 16 -37 25 -13 10 -15 10 -7 1 17 -20 15 -33 -5 -26 -16 6 -16 6 0
-12 21 -23 22 -36 2 -28 -9 3 -15 0 -15 -10 0 -9 -14 -29 -30 -46 -17 -16 -27
-35 -23 -41 4 -7 0 -8 -12 -4 -9 4 -23 3 -30 -3 -14 -12 -60 23 -120 89 -48
54 -49 59 -21 100 14 20 26 42 26 48 0 6 8 9 18 7 17 -5 38 11 68 51 15 20 15
20 10 0 -5 -16 -1 -20 18 -20 21 0 23 2 12 15 -30 35 -29 42 5 36 34 -5 149
-108 149 -134 0 -7 -5 -10 -11 -6 -6 3 -3 -5 6 -20 16 -25 61 -36 78 -20 13
14 -35 82 -105 150 -114 110 -148 127 -148 76z m-2166 -402 c30 -75 40 -167
26 -244 -17 -95 -45 -158 -67 -154 -25 5 -62 104 -70 182 -8 86 27 236 60 258
18 11 35 -3 51 -42z m103 42 c6 -4 19 -27 30 -52 14 -35 18 -71 18 -165 0
-110 -2 -125 -26 -170 -23 -46 -28 -50 -66 -53 l-41 -3 24 65 c38 106 34 219
-13 369 -4 14 1 17 28 17 19 0 39 -4 46 -8z"/>
<path d="M1628 2225 c-4 -49 -10 -103 -12 -120 -3 -16 1 -5 9 25 8 30 14 84
12 120 -2 65 -2 65 -9 -25z"/>
<path d="M1960 2217 c0 -103 -4 -107 -128 -112 -56 -3 -112 -9 -123 -16 -24
-12 -49 -66 -49 -105 0 -14 8 -39 17 -55 26 -44 10 -49 -153 -49 -114 0 -144
3 -154 15 -11 13 -6 15 36 15 60 0 106 26 130 72 9 18 25 43 36 55 19 20 19
21 2 18 -11 -2 -25 -4 -31 -4 -7 -1 -22 -20 -34 -43 -12 -24 -27 -46 -33 -50
-6 -4 -46 -8 -88 -8 l-78 0 0 -52 0 -53 215 0 215 0 0 53 c0 51 -1 52 -30 52
l-29 0 14 41 c8 23 15 50 15 60 0 18 9 19 124 19 120 0 124 1 128 23 7 37 10
197 4 197 -3 0 -6 -33 -6 -73z"/>
<path d="M1410 1748 c0 -40 5 -80 10 -88 13 -20 14 -7 11 123 -1 20 -5 37 -11
37 -6 0 -10 -31 -10 -72z"/>
<path d="M1616 1804 c-14 -36 -2 -154 15 -154 12 0 12 157 0 164 -5 3 -12 -1
-15 -10z"/>
<path d="M1503 1743 c-32 -48 -29 -54 20 -47 23 4 42 7 43 8 0 1 -9 17 -20 37
l-21 36 -22 -34z"/>
<path d="M1513 1623 l-223 -3 0 -84 c0 -78 1 -84 23 -90 39 -10 407 -7 428 4
16 9 19 22 19 95 0 63 -3 84 -12 83 -7 -2 -113 -4 -235 -5z m190 -39 c24 -9
24 -90 0 -102 -22 -10 -343 -9 -361 2 -16 10 -16 93 1 99 20 7 342 8 360 1z"/>
<path d="M1274 1429 c-6 -8 -57 -111 -114 -229 -57 -118 -144 -298 -193 -400
-49 -102 -106 -221 -127 -265 -129 -273 -127 -266 -100 -250 11 7 58 101 210
420 26 55 82 172 125 260 172 356 216 450 213 464 -3 12 -5 12 -14 0z"/>
<path d="M1760 1427 c0 -13 150 -331 460 -973 69 -143 100 -195 100 -166 0 12
-119 264 -486 1029 -52 108 -74 140 -74 110z"/>
<path d="M1357 1383 c-15 -24 -27 -45 -27 -47 0 -7 -141 -299 -325 -671 -92
-187 -171 -353 -174 -370 -6 -29 -9 -30 -66 -33 -58 -3 -61 -4 -81 -42 -12
-21 -19 -41 -16 -44 9 -10 102 -7 121 4 10 5 24 24 31 42 8 18 79 166 158 328
284 580 413 852 409 864 -2 6 -16 -8 -30 -31z"/>
<path d="M1665 1401 c4 -14 42 -97 85 -185 43 -89 136 -283 207 -431 199 -413
257 -523 261 -499 2 12 -41 110 -101 230 -56 115 -146 299 -199 409 -190 395
-229 474 -245 487 -14 11 -15 10 -8 -11z"/>
<path d="M1460 853 c0 -511 5 -632 24 -559 8 31 7 1062 0 1093 -19 76 -24 -29
-24 -534z"/>
<path d="M1566 1387 c-9 -37 -7 -1095 2 -1101 12 -7 22 368 22 786 0 306 -6
385 -24 315z"/>
<path d="M1464 251 c-2 -2 -4 -20 -4 -40 l0 -36 65 0 66 0 -3 40 -3 40 -58 0
c-32 0 -60 -2 -63 -4z"/>
<path d="M2220 248 c0 -7 9 -28 20 -45 19 -32 22 -33 85 -33 36 0 65 2 65 5 0
3 -12 23 -26 45 -26 39 -28 40 -85 40 -41 0 -59 -4 -59 -12z"/>
</g>
</svg>
